<svg xmlns="http://www.w3.org/2000/svg" viewBox="0 0 24 24">
	<defs><style>.cls-1{fill:#474747}.cls-2{fill:#fff}</style></defs>
	<title>Annotations</title>
	<g id="annotations">
		<circle class="cls-1" cx="12.03" cy="12.04" r="10.01"/>
		<polygon class="cls-2" points="19.55 14.25 14.71 19.1 14.28 19.53 11.81 17.06 12.24 16.63 17.09 11.79 19.55 14.25"/>
		<path class="cls-2" d="M20.83,13l-.58.58L17.78,11.1l.59-.59a.32.32,0,0,1,.46,0l2,2A.34.34,0,0,1,20.83,13Z"/>
		<polygon class="cls-2" points="11.07 17.81 13.53 20.28 10.54 20.8 11.07 17.81"/>
		<path class="cls-2" d="M6,16l.27-1.05a4.68,4.68,0,0,0,.21-2.23A4.31,4.31,0,0,1,4.28,9.11c0-2.6,2.81-4.72,6.26-4.72S16.8,6.51,16.8,9.11s-2.78,4.7-6.22,4.72a6.72,6.72,0,0,1-3.74,2ZM10.54,5.6c-2.79,0-5,1.58-5,3.51a3.18,3.18,0,0,0,1.74,2.64l.14.09.07.14A3.72,3.72,0,0,1,7.6,14.4a5.86,5.86,0,0,0,2.25-1.57L10,12.6l.5,0c2.79,0,5.05-1.57,5.05-3.51S13.33,5.6,10.54,5.6Z"/>
	</g>
</svg>
