<svg xmlns="http://www.w3.org/2000/svg" viewBox="0 0 24 24">
	<defs><style>.cls-1{fill:#2e3436}.cls-2{fill:#fff}</style></defs>
	<title>Annotations Symbolic Emblem</title>
	<circle class="cls-1" cx="12" cy="12" r="12" />
	<path class="cls-2" d="M6,16l.27-1.05a4.68,4.68,0,0,0,.21-2.23A4.31,4.31,0,0,1,4.28,9.11c0-2.6,2.81-4.72,6.26-4.72S16.8,6.51,16.8,9.11s-2.78,4.7-6.22,4.72a6.72,6.72,0,0,1-3.74,2ZM10.54,5.6c-2.79,0-5,1.58-5,3.51a3.18,3.18,0,0,0,1.74,2.64l.14.09.07.14A3.72,3.72,0,0,1,7.6,14.4a5.86,5.86,0,0,0,2.25-1.57L10,12.6l.5,0c2.79,0,5.05-1.57,5.05-3.51S13.33,5.6,10.54,5.6Z" />
	<path class="cls-2" d="M 20.815,12.985 20.24,13.56 17.78,11.1 18.37,10.51 c 0.125771,-0.130019 0.334229,-0.130019 0.46,0 l 2,2 c 0.139009,0.133757 0.124009,0.341204 -0.015,0.475 z" />
	<path class="cls-2" d="m 11.082,17.798 -0.53,2.985 2.99,-0.525 z" />
	<path class="cls-2" d="M 14.232,19.567987 19.55,14.25 17.09,11.79 11.772,17.107986 Z" />
</svg>
