<svg xmlns="http://www.w3.org/2000/svg" viewBox="0 0 192 192">
	<defs><style>.cls-1{fill:#9a9996}.cls-2{fill:#fff}</style></defs>
	<title>Annotations Emblem</title>
	<rect class="cls-1" ry="24.226038" rx="24.226053" y="12" x="12" height="168" width="168" />
	<path class="cls-2" d="m 54,124 1.89,-7.35 a 32.76,32.76 0 0 0 1.47,-15.61 30.17,30.17 0 0 1 -15.4,-25.27 c 0,-18.2 19.67,-33.04 43.82,-33.04 24.15,0 43.82,14.84 43.82,33.04 0,18.2 -19.46,32.9 -43.54,33.04 a 47.04,47.04 0 0 1 -26.18,14 z M 85.78,51.2 c -19.53,0 -35,11.06 -35,24.57 a 22.26,22.26 0 0 0 12.18,18.48 l 0.98,0.63 0.49,0.98 A 26.04,26.04 0 0 1 65.2,112.8 41.02,41.02 0 0 0 80.95,101.81 L 82,100.2 h 3.5 c 19.53,0 35.35,-10.99 35.35,-24.57 0,-13.58 -15.54,-24.43 -35.07,-24.43 z" />
	<path class="cls-2" d="m 157.705,102.895 -4.025,4.025 -17.22,-17.22 4.13,-4.13 c 0.8804,-0.910133 2.3396,-0.910133 3.22,0 l 14,14 c 0.97306,0.9363 0.86806,2.38843 -0.105,3.325 z" />
	<path class="cls-2" d="m 89.574,136.586 -3.71,20.895 20.93,-3.675 z" />
	<path class="cls-2" d="M 111.624,148.97591 148.85,111.75 131.63,94.53 94.404,131.7559 Z" />
</svg>
