<svg xmlns="http://www.w3.org/2000/svg" viewBox="0 0 512 512">
	<defs><style>.cls-1{fill:#9a9996}.cls-3{fill:#fff}</style></defs>
	<title>Annotations Emblem</title>
	<g transform="matrix(22.974359,0,0,22.974359,32,32)">
		<rect class="cls-1" ry="2.8119509" rx="2.8119526" y="0" x="0" height="19.5" width="19.5" />
		<path class="cls-3" d="m 3.25,13.0625 0.27,-1.05 a 4.68,4.68 0 0 0 0.21,-2.23 4.31,4.31 0 0 1 -2.2,-3.61 c 0,-2.6 2.81,-4.72 6.26,-4.72 3.45,0 6.26,2.12 6.26,4.72 0,2.6 -2.78,4.7 -6.22,4.72 a 6.72,6.72 0 0 1 -3.74,2 z m 4.54,-10.4 c -2.79,0 -5,1.58 -5,3.51 a 3.18,3.18 0 0 0 1.74,2.64 l 0.14,0.09 0.07,0.14 a 3.72,3.72 0 0 1 0.11,2.42 5.86,5.86 0 0 0 2.25,-1.57 l 0.15,-0.23 h 0.5 c 2.79,0 5.05,-1.57 5.05,-3.51 0,-1.94 -2.22,-3.49 -5.01,-3.49 z" />
		<path class="cls-3" d="m 18.065,10.047014 -0.575,0.575 -2.46,-2.46 0.59,-0.59 c 0.125771,-0.1300187 0.334229,-0.1300187 0.46,0 l 2,2 c 0.139009,0.133757 0.124009,0.341204 -0.015,0.475 z" />
		<path class="cls-3" d="M 8.23,14.962 7.7,17.947 10.69,17.422 Z" />
		<path class="cls-3" d="m 11.431,16.681001 5.318,-5.317987 -2.46,-2.46 L 8.971,14.221 Z" />
	</g>
</svg>
