<svg xmlns="http://www.w3.org/2000/svg" viewBox="0 0 24 24">
	<defs><style>.cls-1{fill:#9a9996}.cls-2{fill:#77767b}.cls-3{fill:#fff}</style></defs>
	<title>Annotations Emblem</title>
	<rect class="cls-1" y="2.25" x="2.25" height="19.5" width="19.5" ry="1.546875" rx="1.546875" />
	<path class="cls-2" d="m 2.25,19.828125 v 0.375 C 2.25,21.06009375 2.93990625,21.75 3.796875,21.75 h 16.40625 C 21.06009375,21.75 21.75,21.06009375 21.75,20.203125 v -0.375 C 21.75,20.68509375 21.06009375,21.375 20.203125,21.375 H 3.796875 C 2.93990625,21.375 2.25,20.68509375 2.25,19.828125 Z" />
	<path class="cls-3" d="m 5.5,15.3125 0.27,-1.05 a 4.68,4.68 0 0 0 0.21,-2.23 4.31,4.31 0 0 1 -2.2,-3.61 c 0,-2.6 2.81,-4.72 6.26,-4.72 3.45,0 6.26,2.12 6.26,4.72 0,2.6 -2.78,4.7 -6.22,4.72 a 6.72,6.72 0 0 1 -3.74,2 z m 4.54,-10.4 c -2.79,0 -5,1.58 -5,3.51 a 3.18,3.18 0 0 0 1.74,2.64 l 0.14,0.09 0.07,0.14 a 3.72,3.72 0 0 1 0.11,2.42 5.86,5.86 0 0 0 2.25,-1.57 l 0.15,-0.23 H 10 c 2.79,0 5.05,-1.57 5.05,-3.51 0,-1.94 -2.22,-3.49 -5.01,-3.49 z" />
	<path class="cls-3" d="m 20.315,12.297014 -0.575,0.575 -2.46,-2.46 0.59,-0.59 c 0.125771,-0.1300187 0.334229,-0.1300187 0.46,0 l 2,2 c 0.139009,0.133757 0.124009,0.341204 -0.015,0.475 z" />
	<path class="cls-3" d="m 10.48,17.212 -0.53,2.985 2.99,-0.525 z" />
	<path class="cls-3" d="m 13.681,18.931001 5.318,-5.317987 -2.46,-2.46 -5.318,5.317986 z" />
</svg>
