<svg xmlns="http://www.w3.org/2000/svg" viewBox="0 0 21 21">
	<defs><style>.cls-1{fill:#2e3436}.cls-2{fill:#fff}</style></defs>
	<title>Symbolic Annotations Emblem</title>
	<circle class="cls-1" cx="10.5" cy="10.5" r="10.5" />
	<path class="cls-2" d="M 4.5,14.5 4.77,13.45 A 4.68,4.68 0 0 0 4.98,11.22 4.31,4.31 0 0 1 2.78,7.61 c 0,-2.6 2.81,-4.72 6.26,-4.72 3.45,0 6.26,2.12 6.26,4.72 0,2.6 -2.78,4.7 -6.22,4.72 a 6.72,6.72 0 0 1 -3.74,2 z M 9.04,4.1 c -2.79,0 -5,1.58 -5,3.51 a 3.18,3.18 0 0 0 1.74,2.64 l 0.14,0.09 0.07,0.14 A 3.72,3.72 0 0 1 6.1,12.9 5.86,5.86 0 0 0 8.35,11.33 L 8.5,11.1 H 9 c 2.79,0 5.05,-1.57 5.05,-3.51 0,-1.94 -2.22,-3.49 -5.01,-3.49 z" />
	<path class="cls-2" d="M 19.315,11.485 18.74,12.06 16.28,9.6 16.87,9.01 c 0.125771,-0.130019 0.334229,-0.130019 0.46,0 l 2,2 c 0.139009,0.133757 0.124009,0.341204 -0.015,0.475 z" />
	<path class="cls-2" d="m 9.582,16.298 -0.53,2.985 2.99,-0.525 z" />
	<path class="cls-2" d="M 12.732,18.067987 18.05,12.75 15.59,10.29 10.272,15.607986 Z" />
</svg>
