<svg xmlns="http://www.w3.org/2000/svg" viewBox="0 0 24 24">
	<defs><style>.cls-1{fill:#000}</style></defs>
	<title>Symbolic Annotate Action</title>
	<path class="cls-1" d="M3.23,16.44l.35-1.38a6.18,6.18,0,0,0,.28-3A5.7,5.7,0,0,1,1,7.39C1,3.94,4.72,1.15,9.28,1.15s8.29,2.79,8.29,6.24-3.69,6.22-8.23,6.24a8.94,8.94,0,0,1-4.95,2.66Zm6-13.7C5.6,2.74,2.6,4.83,2.6,7.39a4.24,4.24,0,0,0,2.3,3.49l.19.11.1.19a5,5,0,0,1,.2,3.2,7.58,7.58,0,0,0,3-2.07l.25-.3.66,0C13,12,16,10,16,7.39S13,2.74,9.28,2.74Z" />
	<path class="cls-1" d="M 22.9,12.5 22.12,13.28 18.86,10 19.64,9.23 a 0.42,0.42 0 0 1 0.61,0 l 2.59,2.59 a 0.44,0.44 0 0 1 0.06,0.68 z" />
	<polygon class="cls-1" points="14.8,20.6 14.23,21.17 10.97,17.91 11.54,17.34 17.95,10.93 21.21,14.19" />
	<polygon class="cls-1" points="13.32,22.1 9.37,22.8 10.06,18.84" />
</svg>
