<?xml version="1.0" encoding="UTF-8"?>
<svg xmlns="http://www.w3.org/2000/svg" viewBox="0 0 16 16">
	<path style="fill:#b08b35;" d="M 7.9999997,1 C 3.581722,1 0,3.91629 0,7.53125 c 0,2.302655 1.459222,4.333261 3.65625,5.5 -0.08355,0.608184 -0.480102,2.115864 -2.28125,2.625 2.332827,0.253533 3.89629,-0.891527 4.71875,-1.75 0.6117587,0.122546 1.2483267,0.1875 1.9062497,0.1875 C 12.418278,14.09375 16,11.14621 16,7.53125 16,3.91629 12.418278,1 7.9999997,1 Z m 0,2 c 0.554,0 1,0.446 1,1 v 4 c 0,0.554 -0.446,1 -1,1 -0.554,0 -1,-0.446 -1,-1 V 4 c 0,-0.554 0.446,-1 1,-1 z m 0,7 c 0.552285,0 1,0.447715 1,1 0,0.552285 -0.447715,1 -1,1 -0.552285,0 -1,-0.447715 -1,-1 0,-0.552285 0.447715,-1 1,-1 z" />
</svg>
