<?xml version="1.0" encoding="UTF-8"?>
<svg xmlns="http://www.w3.org/2000/svg" viewBox="0 0 56 56">
	<defs><style>.cls-1{fill:#2e3436;}</style></defs>
	<title>Tag New</title>
	<path class="cls-1" d="M 14.075052,2.0109168 A 2.5207647,2.5201491 0 0 0 12.012557,4.542167 v 13.21875 a 2.5207647,2.5201491 0 0 0 0.749998,1.78125 l 23.718688,23.71875 a 2.5207647,2.5201491 0 0 0 3.562491,0 l 13.218715,-13.21875 a 2.5207647,2.5201491 0 0 0 0,-3.5625 L 29.543762,2.7609168 a 2.5207647,2.5201491 0 0 0 -1.781246,-0.75 H 14.543801 a 2.5207647,2.5201491 0 0 0 -0.468749,0 z M 22.51253,8.010917 c 2.485986,0 4.499988,2.014621 4.499988,4.5 0,2.48538 -2.014002,4.5 -4.499988,4.5 -2.485987,0 -4.499988,-2.01462 -4.499988,-4.5 0,-2.485379 2.014001,-4.5 4.499988,-4.5 z M 10,30 v 8 H 2 v 8 h 8 v 8 h 8 v -8 h 8 v -8 h -8 v -8 z" />
</svg>
