<svg xmlns="http://www.w3.org/2000/svg" xmlns:xlink="http://www.w3.org/1999/xlink" viewBox="0 0 24 24">
	<defs>
		<filter id="drop-shadow" x="-20%" y="-20%" width="150%" height="150%">
			<feGaussianBlur in="SourceAlpha" stdDeviation="2" />
			<feOffset dx="1" dy="1" result="offsetblur" />
			<feComponentTransfer><feFuncA type="linear" slope="0.8" /></feComponentTransfer>
			<feMerge><feMergeNode /><feMergeNode in="SourceGraphic" /></feMerge>
		</filter>
		<linearGradient id="gradient-range">
			<stop style="stop-color:#000000;stop-opacity:.4;" offset="0" />
			<stop style="stop-color:#000000;stop-opacity:.2;" offset="1" />
		</linearGradient>
		<radialGradient xlink:href="#gradient-range" id="radial-gradient" cx="9.2985427" cy="8.6207567" fx="9.2985427" fy="8.6207567" r="7.6012433" gradientTransform="matrix(1,0,0,0.88477162,0,0.99335582)" gradientUnits="userSpaceOnUse" />
	</defs>
	<title>Unannotate Action</title>
	<path d="M 3.7432587,15.346121 4.0643732,14.132124 A 5.67,5.4365927 0 0 0 4.3212648,11.493003 5.2295814,5.0143333 0 0 1 1.6972994,7.3847677 c 0,-3.0349912 3.4129901,-5.4893754 7.5966552,-5.4893754 4.1836654,0 7.6058314,2.4543842 7.6058314,5.4893754 0,3.0349923 -3.385467,5.4717813 -7.5507831,5.4893753 A 8.2021856,7.8645859 0 0 1 4.8075244,15.214164 Z M 9.2480812,3.2941273 c -3.3304178,0 -6.0828288,1.8385888 -6.0828288,4.0906404 a 3.8900746,3.7299602 0 0 0 2.1101819,3.0701793 l 0.1743194,0.09677 0.091747,0.167145 a 4.5873522,4.3985378 0 0 1 0.1834947,2.815065 6.954426,6.6681835 0 0 0 2.7524115,-1.820998 l 0.2293671,-0.26391 h 0.6055309 c 3.3946381,-0.0089 6.1470521,-1.7682171 6.1470521,-4.0642537 0,-2.2960367 -2.752414,-4.0906402 -6.1654018,-4.0906402 z" style="fill:url(#radial-gradient);stroke-width:0.89839;fill-opacity:1" />
	<path fill="#474747" d="M3.23,16.44l.35-1.38a6.18,6.18,0,0,0,.28-3A5.7,5.7,0,0,1,1,7.39C1,3.94,4.72,1.15,9.28,1.15s8.29,2.79,8.29,6.24-3.69,6.22-8.23,6.24a8.94,8.94,0,0,1-4.95,2.66Zm6-13.7C5.6,2.74,2.6,4.83,2.6,7.39a4.24,4.24,0,0,0,2.3,3.49l.19.11.1.19a5,5,0,0,1,.2,3.2,7.58,7.58,0,0,0,3-2.07l.25-.3.66,0C13,12,16,10,16,7.39S13,2.74,9.28,2.74Z" />
	<path fill="#ed4053" d="m 20.97,9.9503333 -1.08,1.0799997 1.202667,1.216334 1.078,-1.096 z" />
	<path fill="#ed4053" d="m 20.97,9.9503333 -1.08,1.0799997 1.202667,1.216334 1.078,-1.096 z" />
	<path fill="#f15e79" d="M 19.947,11.086667 18.86,10 19.64,9.23 c 0.165678,-0.1750036 0.444322,-0.1750036 0.61,0 l 0.777,0.777 z" />
	<path fill="#e0242d" d="M 22.9,12.5 22.12,13.28 21.036436,12.189797 22.114,11.093667 22.84,11.82 c 0.23108,0.156373 0.260128,0.48558 0.06,0.68 z" />
	<path fill="#fabc29" d="m 18.98,11.96 -6.98,6.98 1.2,1.2 6.98,-6.98 z" />
	<path fill="#fedd40" d="m 17.95,10.93 -6.98,6.98 1.087,1.086667 6.98,-6.98 z" />
	<path fill="#f8961d" d="m 20.123,13.103333 -6.98,6.98 1.087,1.086667 6.98,-6.98 z" />
	<path fill="#debaa2" d="M 11.09,19.87 9.6253212,21.334679 9.37,22.8 10.815938,22.543758 12.29,21.069667 Z" />
	<path fill="#f0dbd1" d="M 10.06,18.84 9.6013363,21.472331 11.146834,19.926834 Z" />
	<path fill="#cf966e" d="M 10.678,22.568 13.32,22.1 12.233,21.013 Z" />
	<path fill="#474747" d="M 9.6255547,21.334446 9.3702335,22.799767 10.816171,22.543525 Z" />
	<path style="stroke:#999;stroke-width:4;filter:url(#drop-shadow)" stroke-linecap="round" d="M 21,3 3,21 M 3,3 21,21" />
	<path style="stroke:#a0a0a0;stroke-width:3.111111111" stroke-linecap="round" d="M 21,3 3,21 M 3,3 21,21" />
	<path style="stroke:#a7a7a7;stroke-width:2.222222222" stroke-linecap="round" d="M 21,3 3,21 M 3,3 21,21" />
	<path style="stroke:#aeaeae;stroke-width:1.333333333" stroke-linecap="round" d="M 21,3 3,21 M 3,3 21,21" />
	<path style="stroke:#b5b5b5;stroke-width:0.444444444" stroke-linecap="round" d="M 21,3 3,21 M 3,3 21,21" />
</svg>
